<svg width="60" height="60" viewBox="0 0 60 60" fill="none" xmlns="http://www.w3.org/2000/svg">
<path d="M33.1206 12.771C40.4953 12.771 46.608 18.1686 47.7267 25.2286C52.7215 26.0261 56.5384 30.3532 56.5384 35.5726C56.5384 41.1516 52.1774 45.7107 46.6783 46.0297V46.049H13.4003C7.27403 46.049 2.30768 41.0826 2.30768 34.9563C2.30768 30.1267 5.39474 26.0197 9.70278 24.4968C9.70277 24.4911 9.70278 24.4855 9.70278 24.4799C9.70278 19.3747 13.8414 15.236 18.9467 15.236C20.5727 15.236 22.1003 15.6567 23.4278 16.3939C26.0239 14.1387 29.4117 12.771 33.1206 12.771Z" fill="#201F23"/>
<path d="M33.1202 13.271C36.7617 13.271 40.0839 14.6329 42.6075 16.8755L24.1495 35.2554C24.1091 35.2956 24.0686 35.3354 24.0284 35.3755C21.0797 38.3113 18.4887 40.8911 16.6348 42.7368C15.7081 43.6595 14.9651 44.3991 14.4542 44.9077C14.1988 45.1619 14.0009 45.3587 13.8672 45.4917C13.8465 45.5123 13.8273 45.5318 13.8096 45.5493H13.4005C7.55037 45.5493 2.8078 40.8066 2.80768 34.9565C2.80768 30.3457 5.75466 26.4229 9.8692 24.9683L10.2032 24.8501V24.48C10.2032 19.651 14.1174 15.736 18.9464 15.7358C20.4849 15.7358 21.9295 16.1336 23.1846 16.8306L23.4913 17.0015L23.7559 16.771C26.2646 14.5918 29.5369 13.2711 33.1202 13.271Z" fill="white" stroke="#201F23"/>
<line x1="6.54543" y1="54.9765" x2="49.4437" y2="12.0783" stroke="white"/>
<line x1="5.65182" y1="54.083" x2="48.55" y2="11.1847" stroke="#201F23"/>
</svg>
