<svg width="60" height="60" viewBox="0 0 60 60" fill="none" xmlns="http://www.w3.org/2000/svg">
<path d="M43.8463 23.3652C43.8463 33.7206 34.935 42.1152 23.9424 42.1152C12.9498 42.1152 4.03857 33.7206 4.03857 23.3652C4.03857 13.0099 12.9498 4.61523 23.9424 4.61523C34.935 4.61523 43.8463 13.0099 43.8463 23.3652Z" fill="white"/>
<path d="M31.5236 15.656C31.2743 15.4064 30.8703 15.4064 30.6211 15.656C30.3719 15.9056 30.3719 16.3102 30.6211 16.5598C34.1395 20.0833 34.0469 25.949 30.3397 29.6625C30.0906 29.9121 30.0906 30.3168 30.3399 30.5663C30.5891 30.8159 30.9932 30.8158 31.2423 30.5662C35.4131 26.3883 35.5745 19.7127 31.5236 15.656Z" fill="#201F23"/>
<path fill-rule="evenodd" clip-rule="evenodd" d="M13.5414 12.8398C19.4927 6.88 28.9865 6.66255 34.7451 12.4294C40.5053 18.1978 40.2864 27.7055 34.3368 33.6653C28.3855 39.6235 18.8917 39.8425 13.1316 34.0741C7.37297 28.3072 7.59011 18.7997 13.5414 12.8398ZM33.8427 13.3332C28.6165 8.09948 19.9314 8.24822 14.4439 13.7436C8.95636 19.239 8.80784 27.9366 14.034 33.1703C19.2617 38.4055 27.9468 38.2553 33.4344 32.7614C38.9205 27.2659 39.0703 18.5684 33.8427 13.3332Z" fill="#201F23"/>
<path fill-rule="evenodd" clip-rule="evenodd" d="M23.9771 3.46094C12.6707 3.46094 3.46143 12.2833 3.46143 23.2197C3.46143 34.156 12.6707 42.9784 23.9771 42.9784C28.9314 42.9784 33.4832 41.2844 37.0341 38.4609L42.1538 43.385C41.3593 44.736 41.5413 46.5037 42.6997 47.6638L50.5302 55.5055C51.9046 56.882 54.1331 56.882 55.5075 55.5055C56.882 54.1291 56.882 51.8973 55.5074 50.5209L47.6765 42.6796C46.3955 41.3968 44.3728 41.3098 42.9911 42.4182L38.0134 37.6307C41.9995 34.0298 44.494 28.911 44.494 23.2197C44.494 12.2833 35.2834 3.46094 23.9771 3.46094ZM4.73773 23.2197C4.73773 13.0373 13.3266 4.73907 23.9771 4.73907C34.6276 4.73907 43.2177 13.0373 43.2177 23.2197C43.2177 33.402 34.6276 41.7002 23.9771 41.7002C13.3266 41.7002 4.73773 33.402 4.73773 23.2197Z" fill="#201F23"/>
</svg>
